<?xml version="1.0" standalone="no"?><!DOCTYPE svg PUBLIC "-//W3C//DTD SVG 1.1//EN" "http://www.w3.org/Graphics/SVG/1.1/DTD/svg11.dtd"><svg t="1559111770773" class="icon" style="" viewBox="0 0 1024 1024" version="1.1" xmlns="http://www.w3.org/2000/svg" p-id="7565" xmlns:xlink="http://www.w3.org/1999/xlink" width="32" height="32"><defs><style type="text/css"></style></defs><path d="M511.488 880.64c-47.104 0-92.16-9.216-133.632-27.136-41.984-18.432-78.848-43.008-110.08-74.24s-56.32-68.096-74.24-109.568c-17.92-41.472-27.136-87.04-27.136-134.656 0-27.136 3.072-54.272 9.728-80.384 6.656-26.112 15.872-51.2 27.648-75.264 11.776-23.552 26.624-46.08 44.032-66.048 17.408-20.48 37.376-39.424 58.88-55.808 6.656-4.608 13.312-7.168 20.992-7.168 2.048 0 3.584 0 5.632 0.512 9.728 1.536 17.408 6.144 23.552 14.336 6.144 8.192 8.192 16.384 6.656 26.112-1.536 10.24-6.144 17.92-14.336 24.064-35.328 26.112-63.488 58.368-82.432 96.256-18.944 37.888-28.672 79.36-28.672 122.88 0 37.376 7.168 73.216 21.504 106.496 14.336 33.28 33.792 62.464 58.368 87.04 24.576 24.576 53.76 44.544 87.04 58.88 33.28 14.336 69.12 22.016 106.496 22.016 37.376 0 73.216-7.168 106.496-22.016 33.28-14.336 62.464-34.304 87.04-58.88 24.576-24.576 44.544-53.76 58.88-87.04 14.336-33.28 22.016-69.12 22.016-106.496 0-44.032-10.24-86.528-30.72-125.952-20.48-39.424-49.664-72.192-86.528-97.792-8.704-5.632-13.312-13.312-14.848-23.04-1.536-10.24 0-18.944 6.144-27.648 5.632-7.68 12.8-12.288 23.04-14.336 2.56-0.512 4.608-0.512 6.656-0.512 7.168 0 13.824 2.048 20.48 6.656 23.04 16.384 43.52 35.328 61.44 55.808 17.92 20.992 33.792 43.52 46.592 67.584 12.8 24.064 22.528 49.664 29.184 76.8 6.656 27.136 10.24 54.784 10.24 82.432 0 47.616-9.216 93.184-27.136 134.656-18.432 41.984-43.008 78.848-74.24 110.08s-68.096 55.808-110.08 74.24c-41.472 17.92-87.04 27.136-134.656 27.136z m0-358.912c-9.728 0-17.92-3.072-25.088-10.24-7.168-7.168-10.24-14.848-10.24-25.088V179.712c0-9.728 3.584-18.432 10.752-25.6C494.08 146.944 501.76 143.36 512 143.36c10.24 0 18.432 3.584 25.6 10.752 7.168 7.168 10.752 15.872 10.752 25.6V486.4c0 9.728-3.072 17.92-10.24 25.088-7.68 6.656-15.872 10.24-26.624 10.24z" p-id="7566"></path></svg>