<?xml version="1.0" standalone="no"?><!DOCTYPE svg PUBLIC "-//W3C//DTD SVG 1.1//EN" "http://www.w3.org/Graphics/SVG/1.1/DTD/svg11.dtd"><svg t="1555395618643" class="icon" style="" viewBox="0 0 1024 1024" version="1.1" xmlns="http://www.w3.org/2000/svg" p-id="1701" xmlns:xlink="http://www.w3.org/1999/xlink" width="32" height="32"><defs><style type="text/css"></style></defs><path d="M509.204793 926.792327c-111.332171 0-216.011135-43.356424-294.710032-122.023581-78.729614-78.772617-122.063513-183.441343-122.044059-294.812421 0-111.359816 43.364615-216.049019 122.106516-294.782728C293.267378 136.468556 397.936103 93.111108 509.276465 93.111108c111.381317 0 216.039804 43.357448 294.789896 122.055321 162.510055 162.57456 162.490601 427.016494 0 589.520406-78.769546 78.717328-183.481274 122.105492-294.861568 122.105492m0.071672-779.351816c-96.842146 0-187.858384 37.69229-256.3215 106.14312-68.474379 68.441615-106.187147 159.509047-106.187147 256.372694-0.011263 96.873886 37.672837 187.929032 106.12469 256.39522 68.454925 68.419089 159.497784 106.155407 256.311261 106.155406 96.873886 0 187.94951-37.754747 256.444366-106.237317 141.328939-141.314605 141.328939-371.320204 0-512.681908-68.481546-68.454925-159.517238-106.147216-256.37167-106.147215M361.155071 623.717152s48.837282 78.069208 148.038459 78.069208c99.202201 0 164.254755-78.069208 164.254756-78.069208s36.872158-0.121842 36.863967 39.032556c0 0-63.94471 91.078695-201.119747 91.078695-137.187323 0-181.827699-91.078695-181.827699-91.078695s-1.351529-39.032556 33.794359-39.032556h-0.004095m26.918969-247.797655c-28.110772 0-51.048875 22.861312-51.048875 51.055018 0 28.154799 22.937079 51.024301 51.048875 51.024301 28.236709 0 51.047851-22.869503 51.04785-51.024301 0-28.193706-22.811141-51.055018-51.04785-51.055018m261.544339 0c-28.150703 0-51.012015 22.861312-51.012015 51.055018 0 28.154799 22.861312 51.024301 51.012015 51.024301 28.205993 0 51.056042-22.869503 51.056041-51.024301 0-28.193706-22.849025-51.055018-51.056041-51.055018m0 0z" fill="" p-id="1702"></path></svg>