<?xml version="1.0" standalone="no"?><!DOCTYPE svg PUBLIC "-//W3C//DTD SVG 1.1//EN" "http://www.w3.org/Graphics/SVG/1.1/DTD/svg11.dtd"><svg t="1568963966294" class="icon" viewBox="0 0 1024 1024" version="1.1" xmlns="http://www.w3.org/2000/svg" p-id="596" xmlns:xlink="http://www.w3.org/1999/xlink" width="32" height="32"><defs><style type="text/css"></style></defs><path d="M92.16 689.46c39.936 10.444 133.83699999 10.24 271.258 13.926-6.554 30.003-7.988 57.036-7.988 104.96C355.328 923.034 438.886 1024 512.82 1024c52.22299999 0 95.231-42.7 95.846-95.13 0.716-64.307 20.48-175.41 127.795-231.833 7.885-4.09600001 30.31-15.155 33.587-16.691l-1.638-1.43399999a101.376 101.376 0 0 0 63.897 25.59999999L928.154 704.512A95.949 95.949 0 0 0 1024 608.666L1024 97.28c0-52.83799999-43.008-95.84599999-95.846-95.846l-95.847 0a94.72 94.72 0 0 0-85.299 55.193l-1.434-0.41-7.68-2.047c-0.512 0-0.819-0.103-1.433-0.308-18.432-4.608-53.863-13.004-129.536-30.41199999-16.384-3.687-101.99-22.016-190.874-22.01600001l-174.694 0c-53.24799999 0-92.672 19.865-114.381 61.64400001-21.3 37.07-125.542 236.032-125.44 516.50599999 0 40.34599999 27.955 91.853 90.624 109.773zM800.358 97.28000001c0-17.613 14.336-31.949 31.95-31.94900001L928.15300001 65.331a31.949 31.949 0 0 1 31.94799999 31.949L960.101 608.666c0 17.612-14.336 31.948-31.94799999 31.948l-95.84700001 0c-17.715 0-31.949-14.336-31.949-31.948L800.357 97.28zM66.15 559.514c13.312-321.02399999 117.146-466.33 117.146-466.33 9.728-17.408 25.19-27.853 58.16300001-27.853L416.051 65.331c87.757 0 174.79700001 19.866 177.05 20.48 132.71 30.515 139.673 32.87 147.968 35.226l-4.608 469.504c0 48.537-1.024 36.25 0 35.635C590.438 686.592 545.997 819.2 544.76800001 928.051A32.051 32.051 0 0 1 512.819 960c-33.792 0-93.491-67.789-93.49100001-151.757 0-75.776 3.072-88.78 29.59400001-167.731-319.488 0-317.338-4.608-345.498-11.97999999-35.02-10.036-37.888-38.913-37.88800001-48.94800001 0-10.957 0.205-9.42 0.61400001-20.07z" p-id="597"></path></svg>